<svg width="730" height="167" viewBox="0 0 730 167" fill="none" xmlns="http://www.w3.org/2000/svg">
<path d="M66.5467 19.3879L0 144.464V144.465H17.2171H25.8256H34.4342L95.3099 31.1848L88.0435 18.9016C83.1437 10.6187 71.067 10.8919 66.5467 19.3879Z" fill="url(#paint0_linear_738_2051)"/>
<path d="M101.025 111.372H107.175L125.458 144.463H157.018L103.301 45.8203L72.1283 103.736L74.5876 109.463H78.8913C85.6055 103.274 89.3465 110.1 89.3465 110.1H91.8057C97.8498 104.313 101.025 111.372 101.025 111.372Z" fill="url(#paint1_linear_738_2051)"/>
<path d="M684.538 166.192H669.637V86.0546H673.214L679.12 93.0442C680.456 91.7799 681.919 90.5879 683.508 89.4681C685.098 88.3483 686.741 87.3911 688.439 86.5964C690.173 85.7656 691.961 85.1154 693.803 84.6458C695.645 84.1762 697.506 83.9414 699.384 83.9414C703.466 83.9414 707.295 84.6819 710.871 86.1629C714.483 87.6078 717.626 89.6668 720.299 92.3398C723.008 95.0129 725.139 98.2458 726.692 102.039C728.246 105.795 729.022 109.967 729.022 114.555C729.022 119.323 728.246 123.622 726.692 127.451C725.139 131.243 723.008 134.476 720.299 137.149C717.626 139.786 714.483 141.809 710.871 143.218C707.295 144.627 703.466 145.331 699.384 145.331C698.084 145.331 696.783 145.187 695.483 144.898C694.219 144.609 692.954 144.229 691.69 143.76C690.462 143.254 689.234 142.694 688.006 142.08C686.814 141.466 685.658 140.834 684.538 140.184V166.192ZM714.176 114.555C714.176 112.099 713.779 109.895 712.984 107.945C712.226 105.994 711.178 104.35 709.841 103.014C708.505 101.641 706.934 100.594 705.128 99.8713C703.321 99.1488 701.407 98.7876 699.384 98.7876C697.361 98.7876 695.447 99.1488 693.641 99.8713C691.871 100.594 690.317 101.641 688.981 103.014C687.644 104.35 686.579 105.994 685.784 107.945C685.025 109.895 684.646 112.099 684.646 114.555C684.646 116.903 685.025 119.052 685.784 121.003C686.579 122.953 687.644 124.615 688.981 125.988C690.317 127.36 691.871 128.426 693.641 129.184C695.447 129.943 697.361 130.322 699.384 130.322C701.407 130.322 703.321 129.943 705.128 129.184C706.934 128.426 708.505 127.36 709.841 125.988C711.178 124.615 712.226 122.953 712.984 121.003C713.779 119.052 714.176 116.903 714.176 114.555Z" fill="white"/>
<path d="M278.178 166.192H263.278V86.0546H266.854L272.76 93.0442C274.096 91.7799 275.559 90.5879 277.149 89.4681C278.738 88.3483 280.381 87.3911 282.079 86.5964C283.813 85.7656 285.601 85.1154 287.443 84.6458C289.286 84.1762 291.146 83.9414 293.024 83.9414C297.106 83.9414 300.935 84.6819 304.511 86.1629C308.123 87.6078 311.266 89.6668 313.939 92.3398C316.648 95.0129 318.779 98.2458 320.333 102.039C321.886 105.795 322.662 109.967 322.662 114.555C322.662 119.323 321.886 123.622 320.333 127.451C318.779 131.243 316.648 134.476 313.939 137.149C311.266 139.786 308.123 141.809 304.511 143.218C300.935 144.627 297.106 145.331 293.024 145.331C291.724 145.331 290.423 145.187 289.123 144.898C287.859 144.609 286.594 144.229 285.33 143.76C284.102 143.254 282.874 142.694 281.646 142.08C280.454 141.466 279.298 140.834 278.178 140.184V166.192ZM307.816 114.555C307.816 112.099 307.419 109.895 306.624 107.945C305.866 105.994 304.818 104.35 303.482 103.014C302.145 101.641 300.574 100.594 298.768 99.8713C296.962 99.1488 295.047 98.7876 293.024 98.7876C291.001 98.7876 289.087 99.1488 287.281 99.8713C285.511 100.594 283.958 101.641 282.621 103.014C281.285 104.35 280.219 105.994 279.424 107.945C278.666 109.895 278.286 112.099 278.286 114.555C278.286 116.903 278.666 119.052 279.424 121.003C280.219 122.953 281.285 124.615 282.621 125.988C283.958 127.36 285.511 128.426 287.281 129.184C289.087 129.943 291.001 130.322 293.024 130.322C295.047 130.322 296.962 129.943 298.768 129.184C300.574 128.426 302.145 127.36 303.482 125.988C304.818 124.615 305.866 122.953 306.624 121.003C307.419 119.052 307.816 116.903 307.816 114.555Z" fill="white"/>
<path d="M663.313 144.088H659.737L653.994 136.123C652.585 137.387 651.086 138.579 649.496 139.699C647.943 140.783 646.3 141.74 644.566 142.571C642.832 143.365 641.044 143.997 639.202 144.467C637.395 144.937 635.553 145.171 633.675 145.171C629.593 145.171 625.746 144.485 622.134 143.112C618.558 141.74 615.415 139.753 612.706 137.152C610.033 134.515 607.92 131.3 606.367 127.508C604.813 123.715 604.037 119.398 604.037 114.558C604.037 110.043 604.813 105.907 606.367 102.15C607.92 98.3571 610.033 95.1061 612.706 92.3969C615.415 89.6877 618.558 87.5926 622.134 86.1116C625.746 84.5945 629.593 83.8359 633.675 83.8359C635.553 83.8359 637.414 84.0707 639.256 84.5403C641.098 85.0099 642.886 85.6601 644.62 86.4909C646.354 87.3217 647.997 88.297 649.551 89.4168C651.14 90.5366 652.621 91.7467 653.994 93.0471L659.737 86.1658H663.313V144.088ZM648.413 114.558C648.413 112.535 648.015 110.584 647.221 108.706C646.462 106.792 645.415 105.112 644.078 103.667C642.742 102.186 641.17 101.012 639.364 100.145C637.594 99.242 635.698 98.7905 633.675 98.7905C631.652 98.7905 629.738 99.1337 627.931 99.82C626.161 100.506 624.608 101.518 623.272 102.854C621.971 104.191 620.942 105.852 620.183 107.839C619.425 109.79 619.045 112.029 619.045 114.558C619.045 117.086 619.425 119.344 620.183 121.331C620.942 123.281 621.971 124.925 623.272 126.261C624.608 127.598 626.161 128.609 627.931 129.296C629.738 129.982 631.652 130.325 633.675 130.325C635.698 130.325 637.594 129.892 639.364 129.025C641.17 128.122 642.742 126.948 644.078 125.503C645.415 124.022 646.462 122.342 647.221 120.464C648.015 118.549 648.413 116.581 648.413 114.558Z" fill="white"/>
<path d="M448.554 144.088H444.978L439.235 136.123C437.826 137.387 436.327 138.579 434.737 139.699C433.184 140.783 431.541 141.74 429.807 142.571C428.073 143.365 426.285 143.997 424.443 144.467C422.636 144.937 420.794 145.171 418.916 145.171C414.834 145.171 410.987 144.485 407.375 143.112C403.799 141.74 400.656 139.753 397.947 137.152C395.274 134.515 393.161 131.3 391.608 127.508C390.054 123.715 389.278 119.398 389.278 114.558C389.278 110.043 390.054 105.907 391.608 102.15C393.161 98.3571 395.274 95.1061 397.947 92.3969C400.656 89.6877 403.799 87.5926 407.375 86.1116C410.987 84.5945 414.834 83.8359 418.916 83.8359C420.794 83.8359 422.655 84.0707 424.497 84.5403C426.339 85.0099 428.127 85.6601 429.861 86.4909C431.595 87.3217 433.238 88.297 434.792 89.4168C436.381 90.5366 437.862 91.7467 439.235 93.0471L444.978 86.1658H448.554V144.088ZM433.654 114.558C433.654 112.535 433.256 110.584 432.462 108.706C431.703 106.792 430.656 105.112 429.319 103.667C427.983 102.186 426.411 101.012 424.605 100.145C422.835 99.242 420.939 98.7905 418.916 98.7905C416.893 98.7905 414.979 99.1337 413.172 99.82C411.402 100.506 409.849 101.518 408.513 102.854C407.212 104.191 406.183 105.852 405.424 107.839C404.666 109.79 404.286 112.029 404.286 114.558C404.286 117.086 404.666 119.344 405.424 121.331C406.183 123.281 407.212 124.925 408.513 126.261C409.849 127.598 411.402 128.609 413.172 129.296C414.979 129.982 416.893 130.325 418.916 130.325C420.939 130.325 422.835 129.892 424.605 129.025C426.411 128.122 427.983 126.948 429.319 125.503C430.656 124.022 431.703 122.342 432.462 120.464C433.256 118.549 433.654 116.581 433.654 114.558Z" fill="white"/>
<path d="M598.397 123.117C598.397 126.151 597.819 129.023 596.663 131.732C595.507 134.405 593.918 136.735 591.895 138.722C589.908 140.709 587.56 142.28 584.851 143.436C582.178 144.592 579.306 145.17 576.236 145.17C573.491 145.17 570.854 144.7 568.325 143.761C565.797 142.786 563.503 141.377 561.444 139.535C559.421 141.377 557.145 142.786 554.617 143.761C552.124 144.7 549.487 145.17 546.706 145.17C543.636 145.17 540.764 144.592 538.091 143.436C535.418 142.28 533.07 140.709 531.047 138.722C529.06 136.735 527.489 134.405 526.333 131.732C525.177 129.023 524.599 126.151 524.599 123.117V86.1641H539.391V123.117C539.391 124.128 539.572 125.086 539.933 125.989C540.33 126.856 540.854 127.632 541.504 128.319C542.191 128.969 542.967 129.493 543.834 129.89C544.737 130.251 545.695 130.432 546.706 130.432C547.717 130.432 548.675 130.251 549.578 129.89C550.481 129.493 551.275 128.969 551.962 128.319C552.648 127.632 553.172 126.856 553.533 125.989C553.93 125.086 554.129 124.128 554.129 123.117V86.1641H568.867V123.117C568.867 124.128 569.066 125.086 569.463 125.989C569.86 126.856 570.384 127.632 571.034 128.319C571.721 128.969 572.497 129.493 573.364 129.89C574.267 130.251 575.224 130.432 576.236 130.432C577.247 130.432 578.204 130.251 579.108 129.89C580.011 129.493 580.787 128.969 581.437 128.319C582.124 127.632 582.666 126.856 583.063 125.989C583.46 125.086 583.659 124.128 583.659 123.117V86.1641H598.397V123.117Z" fill="white"/>
<path d="M455.865 89.6855C455.865 86.4706 456.479 83.4545 457.708 80.6369C458.936 77.8194 460.597 75.3631 462.692 73.268C464.824 71.1368 467.298 69.4571 470.116 68.229C472.933 67.0008 475.949 66.3867 479.164 66.3867H514.817V81.9373H479.164C478.081 81.9373 477.069 82.136 476.13 82.5333C475.191 82.9307 474.36 83.4906 473.637 84.213C472.951 84.8993 472.409 85.7121 472.012 86.6513C471.615 87.5904 471.416 88.6019 471.416 89.6855C471.416 90.7692 471.615 91.7987 472.012 92.774C472.409 93.7131 472.951 94.544 473.637 95.2664C474.36 95.9527 475.191 96.4946 476.13 96.8919C477.069 97.2892 478.081 97.4879 479.164 97.4879H494.715C497.93 97.4879 500.946 98.102 503.763 99.3301C506.617 100.522 509.091 102.184 511.186 104.315C513.318 106.41 514.979 108.884 516.171 111.738C517.4 114.556 518.014 117.572 518.014 120.787C518.014 124.002 517.4 127.018 516.171 129.835C514.979 132.653 513.318 135.127 511.186 137.258C509.091 139.354 506.617 141.015 503.763 142.243C500.946 143.471 497.93 144.086 494.715 144.086H460.2V128.535H494.715C495.798 128.535 496.81 128.336 497.749 127.939C498.688 127.542 499.501 127 500.187 126.313C500.91 125.591 501.47 124.76 501.867 123.821C502.264 122.882 502.463 121.87 502.463 120.787C502.463 119.703 502.264 118.692 501.867 117.752C501.47 116.813 500.91 116.001 500.187 115.314C499.501 114.592 498.688 114.032 497.749 113.635C496.81 113.237 495.798 113.039 494.715 113.039H479.164C475.949 113.039 472.933 112.424 470.116 111.196C467.298 109.968 464.824 108.307 462.692 106.211C460.597 104.08 458.936 101.606 457.708 98.7883C456.479 95.9347 455.865 92.9004 455.865 89.6855Z" fill="white"/>
<path d="M344.706 144.085H329.914V62.9727H344.706V88.6013C346.476 87.2648 348.3 86.3256 350.179 85.7838C352.057 85.2059 353.971 84.9169 355.922 84.9169C359.498 84.9169 362.857 85.6032 366 86.9758C369.143 88.3124 371.87 90.1727 374.182 92.5567C376.53 94.9047 378.372 97.668 379.708 100.847C381.081 103.989 381.767 107.349 381.767 110.925V144.085H366.867V110.925H366.975C366.975 109.408 366.686 107.981 366.108 106.644C365.53 105.272 364.736 104.08 363.724 103.068C362.713 102.057 361.539 101.262 360.202 100.684C358.866 100.106 357.439 99.8173 355.922 99.8173C354.369 99.8173 352.906 100.106 351.533 100.684C350.16 101.262 348.968 102.057 347.957 103.068C346.946 104.08 346.151 105.272 345.573 106.644C344.995 107.981 344.706 109.408 344.706 110.925V144.085Z" fill="white"/>
<path d="M255.969 144.112H241.069V63H255.969V144.112Z" fill="white"/>
<path d="M217.598 109.652V94.1012C217.598 91.97 217.182 89.9652 216.351 88.0869C215.557 86.1724 214.455 84.5108 213.046 83.102C211.637 81.6932 209.976 80.5915 208.061 79.7968C206.183 78.966 204.178 78.5506 202.047 78.5506C199.916 78.5506 197.893 78.966 195.978 79.7968C194.1 80.5915 192.457 81.6932 191.048 83.102C189.639 84.5108 188.519 86.1724 187.688 88.0869C186.894 89.9652 186.496 91.97 186.496 94.1012V109.652H217.598ZM233.148 144H217.598V125.148H186.496V144H171L171 94.1012C171 89.8027 171.813 85.775 173.438 82.0183C175.064 78.2255 177.267 74.9203 180.049 72.1028C182.866 69.2853 186.153 67.0637 189.91 65.4382C193.703 63.8127 197.748 63 202.047 63C206.346 63 210.373 63.8127 214.13 65.4382C217.923 67.0637 221.228 69.2853 224.045 72.1028C226.863 74.9203 229.084 78.2255 230.71 82.0183C232.335 85.775 233.148 89.8027 233.148 94.1012V144Z" fill="white"/>
<defs>
<linearGradient id="paint0_linear_738_2051" x1="29.8995" y1="77.9854" x2="130.078" y2="77.9854" gradientUnits="userSpaceOnUse">
<stop stop-color="#00F260"/>
<stop offset="1" stop-color="#0575E6"/>
</linearGradient>
<linearGradient id="paint1_linear_738_2051" x1="29.8991" y1="77.9873" x2="130.078" y2="77.9873" gradientUnits="userSpaceOnUse">
<stop stop-color="#00F260"/>
<stop offset="1" stop-color="#0575E6"/>
</linearGradient>
</defs>
</svg>
