<svg width="31" height="31" viewBox="0 0 31 31" fill="none" xmlns="http://www.w3.org/2000/svg">
<path d="M14.0005 1.5V9.13341C17.5087 9.13341 20.3671 11.9919 20.3671 15.5H28.0006C27.9681 7.76914 21.6989 1.5 14.0005 1.5Z" fill="url(#paint0_linear_682_823)"/>
<path d="M14 9.13341C16.1114 9.13341 17.8005 7.41183 17.8005 5.33295C17.8005 3.22158 16.1114 1.5 14 1.5C6.26914 1.5 0 7.76914 0 15.5H7.63341C7.63341 11.9919 10.4919 9.13341 14 9.13341Z" fill="url(#paint1_linear_682_823)"/>
<path d="M7.63341 15.5H0C0 23.2309 6.26914 29.5 14 29.5V21.8341C10.4919 21.8341 7.63341 19.0081 7.63341 15.5Z" fill="url(#paint2_linear_682_823)"/>
<path d="M14.0005 29.4675V21.8341C10.4924 21.8341 7.63389 18.9757 7.63389 15.4675H0.032959C0.032959 23.1984 6.3021 29.4675 14.0005 29.4675Z" fill="url(#paint3_linear_682_823)"/>
<path d="M14.0005 9.13341C16.1119 9.13341 17.801 7.41183 17.801 5.33295C17.801 3.25406 16.1119 1.5 14.0005 1.5C6.3021 1.5 0.032959 7.76914 0.032959 15.5H7.66637C7.66637 11.9919 10.4924 9.13341 14.0005 9.13341Z" fill="url(#paint4_linear_682_823)"/>
<path d="M13.9995 21.8342C11.8881 21.8342 10.199 23.5558 10.199 25.6346C10.199 27.7135 11.9206 29.4351 13.9995 29.4351C21.7303 29.4351 27.9995 23.166 27.9995 15.4351H20.3336C20.3336 19.0082 17.5076 21.8342 13.9995 21.8342Z" fill="url(#paint5_linear_682_823)"/>
<defs>
<linearGradient id="paint0_linear_682_823" x1="22.0166" y1="3.41696" x2="15.4895" y2="35.4901" gradientUnits="userSpaceOnUse">
<stop offset="0.00263614" stop-color="#134FFE"/>
<stop offset="0.0863699" stop-color="#1062FD"/>
<stop offset="0.26" stop-color="#0B84FC"/>
<stop offset="0.4374" stop-color="#079FFA"/>
<stop offset="0.6177" stop-color="#04B2FA"/>
<stop offset="0.8028" stop-color="#03BDF9"/>
<stop offset="1" stop-color="#02C1F9"/>
</linearGradient>
<linearGradient id="paint1_linear_682_823" x1="8.7207" y1="1.02004" x2="9.28967" y2="30.4364" gradientUnits="userSpaceOnUse">
<stop stop-color="#06B1FA"/>
<stop offset="1" stop-color="#1058FE"/>
</linearGradient>
<linearGradient id="paint2_linear_682_823" x1="7.31774" y1="1.78055" x2="6.89213" y2="29.0187" gradientUnits="userSpaceOnUse">
<stop stop-color="#06B1FA"/>
<stop offset="1" stop-color="#1058FE"/>
</linearGradient>
<linearGradient id="paint3_linear_682_823" x1="5.98504" y1="27.5601" x2="12.5123" y2="-4.51301" gradientUnits="userSpaceOnUse">
<stop offset="0.00263614" stop-color="#134FFE"/>
<stop offset="0.0863699" stop-color="#1062FD"/>
<stop offset="0.26" stop-color="#0B84FC"/>
<stop offset="0.4374" stop-color="#079FFA"/>
<stop offset="0.6177" stop-color="#04B2FA"/>
<stop offset="0.8028" stop-color="#03BDF9"/>
<stop offset="1" stop-color="#02C1F9"/>
</linearGradient>
<linearGradient id="paint4_linear_682_823" x1="5.35481" y1="27.4318" x2="17.2158" y2="-0.124132" gradientUnits="userSpaceOnUse">
<stop offset="0.00263614" stop-color="#134FFE"/>
<stop offset="0.0863699" stop-color="#1062FD"/>
<stop offset="0.26" stop-color="#0B84FC"/>
<stop offset="0.4374" stop-color="#079FFA"/>
<stop offset="0.6177" stop-color="#04B2FA"/>
<stop offset="0.8028" stop-color="#03BDF9"/>
<stop offset="1" stop-color="#02F9F9"/>
</linearGradient>
<linearGradient id="paint5_linear_682_823" x1="22.6458" y1="3.54525" x2="11.0441" y2="31.3841" gradientUnits="userSpaceOnUse">
<stop offset="0.00263614" stop-color="#134FFE"/>
<stop offset="0.0863699" stop-color="#1062FD"/>
<stop offset="0.26" stop-color="#0B84FC"/>
<stop offset="0.4374" stop-color="#079FFA"/>
<stop offset="0.6177" stop-color="#04B2FA"/>
<stop offset="0.8028" stop-color="#03BDF9"/>
<stop offset="1" stop-color="#02F9F9"/>
</linearGradient>
</defs>
</svg>
