<svg width="30" height="30" viewBox="0 0 30 30" fill="none" xmlns="http://www.w3.org/2000/svg">
<rect width="30" height="30" rx="15" fill="#12FE74"/>
<path fill-rule="evenodd" clip-rule="evenodd" d="M19.2417 7.19919C17.9985 6.54106 17.0549 5.38498 16.6823 3.99561C16.5674 4.42043 16.5082 4.86614 16.5082 5.32579C16.5082 5.68445 16.5465 6.03266 16.6161 6.37043C16.6161 6.37043 16.6161 6.37043 16.6161 6.37392C16.6161 6.3774 16.6196 6.38436 16.6196 6.38784C16.7136 6.84052 16.8668 7.26883 17.0723 7.66579C16.6335 7.34195 16.2435 6.95544 15.9162 6.52017C15.4775 9.92223 16.7136 13.4636 18.9735 15.7966C21.9229 19.23 19.2034 25.0557 14.6069 24.9025C8.10226 24.9582 6.98797 15.3788 13.228 13.8745L13.2245 13.8571C14.889 13.3173 15.669 12.2344 15.8048 10.8276C13.4021 12.7741 9.60655 10.361 10.3935 7.33847C1.37474 11.7782 4.72458 26.1804 14.9482 26.0028C19.4019 26.0028 23.1695 23.0569 24.4057 19.0072C25.8821 14.2854 23.4934 9.25366 19.2417 7.19919Z" fill="black"/>
</svg>
