<svg width="182" height="32" viewBox="0 0 182 32" fill="none" xmlns="http://www.w3.org/2000/svg">
<path d="M0 0H8.72083V20.3604V23.2674H11.6396H20.3604V32H0V0Z" fill="#634CFF"/>
<path d="M23.2674 32V11.6396V8.72083H20.3605H11.6396V0H32.0001V32H23.2674Z" fill="#634CFF"/>
<path d="M11.6479 16.0084C11.6479 18.4166 13.6002 20.3688 16.0084 20.3688C18.4166 20.3688 20.3688 18.4166 20.3688 16.0084C20.3688 13.6002 18.4166 11.648 16.0084 11.648C13.6002 11.648 11.6479 13.6002 11.6479 16.0084Z" fill="#634CFF"/>
<path d="M174.91 8.26111H178.314V12.2854H181.798V15.0958H178.314V21.2312C178.314 21.9349 178.46 22.4495 178.75 22.775C179.049 23.1005 179.524 23.2632 180.175 23.2632C180.579 23.2632 181.076 23.1796 181.666 23.0125V25.7437C181.446 25.8405 181.103 25.9241 180.637 25.9944C180.17 26.0648 179.722 26.1 179.291 26.1C177.751 26.1 176.634 25.669 175.939 24.8069C175.253 23.9449 174.91 22.7002 174.91 21.0729V15.0958H172.403V12.2854H174.91V8.26111Z" fill="white"/>
<path d="M160.304 20.1757C160.41 21.2313 160.797 22.0625 161.465 22.6695C162.134 23.2764 163.053 23.5799 164.223 23.5799C165.032 23.5799 165.745 23.4259 166.36 23.1181C166.976 22.8014 167.451 22.3704 167.785 21.825H170.952C170.459 23.0653 169.606 24.0901 168.392 24.8993C167.187 25.6998 165.797 26.1 164.223 26.1C161.971 26.1 160.194 25.4359 158.892 24.1076C157.599 22.7794 156.953 21.0817 156.953 19.0146C156.953 16.9739 157.617 15.2894 158.945 13.9611C160.273 12.6241 161.975 11.9556 164.051 11.9556C166.145 11.9556 167.847 12.6197 169.157 13.9479C170.477 15.2762 171.137 16.9826 171.137 19.0674V20.1757H160.304ZM164.117 14.3965C163.053 14.3965 162.182 14.7132 161.505 15.3465C160.836 15.9711 160.427 16.8331 160.278 17.9327H167.891C167.785 16.8683 167.398 16.0151 166.73 15.3729C166.061 14.722 165.19 14.3965 164.117 14.3965Z" fill="white"/>
<path d="M150.659 25.7701V6.04443H154.063V25.7701H150.659Z" fill="white"/>
<path d="M143.534 25.7701V6.04443H146.938V25.7701H143.534Z" fill="white"/>
<path d="M139.8 12.2854V25.7702H136.541V23.4479C136.11 24.2044 135.459 24.8377 134.588 25.3479C133.717 25.8493 132.728 26.1 131.619 26.1C130.318 26.1 129.143 25.7833 128.096 25.15C127.05 24.5167 126.24 23.6634 125.669 22.5903C125.097 21.5171 124.811 20.334 124.811 19.041C124.811 17.7479 125.097 16.5648 125.669 15.4917C126.24 14.4097 127.05 13.5521 128.096 12.9188C129.143 12.2766 130.318 11.9556 131.619 11.9556C132.763 11.9556 133.77 12.2107 134.641 12.7208C135.521 13.2222 136.136 13.8512 136.488 14.6076V12.2854H139.8ZM129.35 16.0063C128.593 16.8331 128.215 17.8447 128.215 19.041C128.215 20.2373 128.589 21.2445 129.337 22.0625C130.093 22.8806 131.07 23.2896 132.266 23.2896C133.436 23.2896 134.417 22.8982 135.208 22.1153C136 21.3324 136.396 20.3076 136.396 19.041C136.396 17.7743 135.996 16.7452 135.195 15.9535C134.403 15.1618 133.427 14.766 132.266 14.766C131.078 14.766 130.106 15.1794 129.35 16.0063Z" fill="white"/>
<path d="M117.224 20.5056L121.011 6.8493H124.52L118.715 25.7701H115.931L111.181 11.4806L106.418 25.7701H103.634L97.8281 6.8493H101.338L105.125 20.5056L109.795 6.8493H112.553L117.224 20.5056Z" fill="white"/>
<path d="M86.4019 25.084C85.2584 25.7614 83.939 26.1 82.4436 26.1C80.9482 26.1 79.6288 25.7614 78.4853 25.084C77.3417 24.4067 76.4797 23.5403 75.8991 22.4847C75.3274 21.4204 75.0415 20.2725 75.0415 19.041C75.0415 18.1174 75.213 17.2333 75.5561 16.3889C75.8991 15.5357 76.3785 14.7792 76.9943 14.1195C77.61 13.4597 78.3885 12.9364 79.3297 12.5493C80.2797 12.1535 81.3177 11.9556 82.4436 11.9556C83.5695 11.9556 84.6031 12.1535 85.5443 12.5493C86.4943 12.9364 87.2772 13.4597 87.8929 14.1195C88.5086 14.7792 88.988 15.5357 89.3311 16.3889C89.6741 17.2333 89.8457 18.1174 89.8457 19.041C89.8457 20.2725 89.5554 21.4204 88.9748 22.4847C88.4031 23.5403 87.5454 24.4067 86.4019 25.084ZM84.6471 15.4125C84.0225 15.0079 83.288 14.8056 82.4436 14.8056C81.5991 14.8056 80.8603 15.0079 80.2269 15.4125C79.6024 15.8171 79.1362 16.3361 78.8283 16.9695C78.5204 17.6028 78.3665 18.2933 78.3665 19.041C78.3665 20.2021 78.7316 21.1961 79.4616 22.0229C80.1917 22.8498 81.1857 23.2632 82.4436 23.2632C83.7015 23.2632 84.6954 22.8498 85.4255 22.0229C86.1556 21.1961 86.5207 20.2021 86.5207 19.041C86.5207 18.2933 86.3667 17.6028 86.0589 16.9695C85.751 16.3361 85.2804 15.8171 84.6471 15.4125Z" fill="white"/>
<path d="M62.137 20.1757C62.2426 21.2313 62.6296 22.0625 63.2981 22.6695C63.9667 23.2764 64.8859 23.5799 66.0558 23.5799C66.865 23.5799 67.5775 23.4259 68.1933 23.1181C68.809 22.8014 69.284 22.3704 69.6183 21.825H72.785C72.2924 23.0653 71.4391 24.0901 70.2252 24.8993C69.0201 25.6998 67.6303 26.1 66.0558 26.1C63.8039 26.1 62.0271 25.4359 60.7252 24.1076C59.4322 22.7794 58.7856 21.0817 58.7856 19.0146C58.7856 16.9739 59.4498 15.2894 60.778 13.9611C62.1062 12.6241 63.8083 11.9556 65.8843 11.9556C67.9778 11.9556 69.6799 12.6197 70.9905 13.9479C72.31 15.2762 72.9697 16.9826 72.9697 19.0674V20.1757H62.137ZM65.9502 14.3965C64.8859 14.3965 64.015 14.7132 63.3377 15.3465C62.6692 15.9711 62.2602 16.8331 62.1106 17.9327H69.7238C69.6183 16.8683 69.2312 16.0151 68.5627 15.3729C67.8942 14.722 67.0234 14.3965 65.9502 14.3965Z" fill="white"/>
<path d="M44.7998 6.8493H48.3095V22.6958H56.9255V25.7701H44.7998V6.8493Z" fill="white"/>
</svg>
