<svg width="43" height="43" viewBox="0 0 43 43" fill="none" xmlns="http://www.w3.org/2000/svg">
<g clip-path="url(#clip0_2855_2235)">
<path d="M39.6971 26.9527C39.1588 27.1029 38.5514 27.1439 37.9303 26.9391C38.2478 26.0513 38.4962 25.15 38.6618 24.2076H38.6342V24.1803C38.6618 24.0983 38.6757 24.0027 38.6895 23.9208C38.7033 23.8662 38.7033 23.8252 38.7033 23.7706C38.7171 23.7296 38.7171 23.6886 38.7309 23.634L38.7585 23.5247V23.4974C38.7723 23.3609 38.7999 23.2243 38.8137 23.1014V23.0877C38.8275 23.0058 38.8275 22.9102 38.8413 22.8009V22.7873C38.8551 22.6917 38.8551 22.6097 38.8689 22.5141V22.5004L38.8827 22.4868V22.4458C38.8827 22.3639 38.8965 22.2683 38.8965 22.1727C38.9103 22.1317 38.9103 22.0771 38.9103 22.0224C38.9103 21.8859 38.9241 21.763 38.9241 21.6264C38.9241 21.5171 38.9379 21.3942 38.9379 21.2713C38.9379 21.203 38.9379 21.1347 38.9379 21.0664C38.9517 20.9162 38.9517 20.7523 38.9517 20.6021C38.9517 19.0998 38.7723 17.5975 38.4134 16.1498L38.3858 16.0679C38.3582 15.9586 38.3306 15.8357 38.303 15.7128H38.2892V15.6718C38.2616 15.5626 38.234 15.4396 38.1926 15.344L38.1787 15.3031V15.2758C38.1373 15.1392 38.0959 15.0026 38.0545 14.866C38.0131 14.7431 37.9717 14.6202 37.9303 14.4973C37.8475 14.2378 37.7647 14.0056 37.668 13.7735V13.7598L37.6266 13.6642L37.599 13.5959L37.5852 13.5823C37.5576 13.5003 37.53 13.432 37.4886 13.3501C37.4472 13.2135 37.392 13.0769 37.323 12.954L37.2954 12.8584C37.1849 12.5989 37.0469 12.3394 36.9227 12.08C36.8399 11.9161 36.7433 11.7385 36.6604 11.5746C36.619 11.4927 36.5776 11.4108 36.5362 11.3425C36.412 11.1103 36.274 10.8918 36.1497 10.6596L36.1359 10.6459C35.3906 9.40313 34.4934 8.25592 33.472 7.20431C33.472 7.20431 33.472 7.20431 33.472 7.19066C33.9965 5.34693 33.9965 2.56084 30.7252 0.198138C30.0351 -0.293523 29.0412 0.184481 29.0412 1.03123C29.0412 1.75507 28.9308 2.60182 28.6134 3.55783V3.57148C28.4063 3.46222 28.2131 3.35297 28.006 3.25737C27.7852 3.14811 27.5643 3.05251 27.3297 2.94325C27.1364 2.8613 26.9432 2.77936 26.75 2.69742C26.5429 2.61547 26.3221 2.53353 26.1012 2.45159C26.1012 2.45159 26.1012 2.45159 26.0874 2.45159C25.8114 2.35599 25.5215 2.26039 25.2455 2.16478H25.2317V2.15113C23.3959 1.59118 21.4497 1.27706 19.4206 1.27706C18.7029 1.27706 17.9851 1.31803 17.2812 1.39998C17.2812 1.39998 17.2812 1.41364 17.2674 1.41364L17.1018 1.42729H17.0742C16.9637 1.44095 16.8533 1.45461 16.7429 1.46826C16.7429 1.46826 16.7291 1.46826 16.7015 1.48192C16.6877 1.48192 16.6601 1.48192 16.6325 1.48192C16.522 1.49558 16.4116 1.50924 16.3012 1.52289C16.1632 1.55021 16.0113 1.56387 15.8595 1.60484H15.8319H15.8181C15.7491 1.61849 15.6801 1.63215 15.6111 1.64581C15.5696 1.64581 15.5282 1.65947 15.473 1.67312H15.4454L15.3488 1.70044C15.2384 1.71409 15.1418 1.74141 15.0313 1.76872H15.0451C14.9899 1.78238 14.9209 1.79604 14.8657 1.8097C14.8105 1.82335 14.7553 1.83701 14.6863 1.85067L14.6725 1.86433C14.562 1.89164 14.4516 1.91895 14.3412 1.94627C14.2308 1.98724 14.1203 2.01455 14.0099 2.02821C13.9961 2.02821 13.9961 2.02821 13.9961 2.02821C13.4302 2.17844 12.8919 2.3833 12.3536 2.5745C12.2708 2.61547 12.2017 2.64279 12.1189 2.6701C11.9947 2.71107 11.8705 2.7657 11.7462 2.82033C11.5806 2.88862 11.4012 2.97056 11.2355 3.05251C10.7248 3.29834 10.2141 3.55783 9.73103 3.83097C8.66821 4.43189 7.6882 5.11475 6.77721 5.89322C6.65299 6.00248 6.52876 6.11173 6.40453 6.22099C6.37693 6.23465 6.34932 6.26196 6.32172 6.28928C6.29411 6.30293 6.28031 6.33025 6.2527 6.34391L6.21129 6.39854C6.18369 6.41219 6.16989 6.43951 6.12848 6.46682C6.10087 6.49414 6.08707 6.50779 6.05946 6.53511L6.03186 6.56242L5.99045 6.60339L5.85242 6.73997C5.742 6.84923 5.61777 6.97214 5.50735 7.09506L5.39692 7.20431L5.31411 7.29991C5.2727 7.35454 5.21749 7.39552 5.17608 7.45014C5.06565 7.57306 4.96903 7.68232 4.85861 7.79158L4.7896 7.87352C4.66537 8.01009 4.54115 8.16032 4.41692 8.2969L4.40312 8.31055C4.38931 8.31055 4.38931 8.31055 4.38931 8.32421C4.19607 8.57004 4.00283 8.80221 3.8234 9.04805C3.64396 9.29388 3.46452 9.55336 3.28508 9.81285C3.17466 9.97674 3.05044 10.1543 2.95382 10.3182L2.91241 10.3865C2.82959 10.5367 2.73297 10.6733 2.65015 10.8235L2.60874 10.8781C2.58114 10.9327 2.55353 10.9737 2.52593 11.0283C2.48452 11.0966 2.44311 11.1649 2.4017 11.2469L2.34649 11.3561C2.30508 11.4108 2.27747 11.479 2.24987 11.5473L2.20846 11.6156V11.6293V11.6429C2.15325 11.7385 2.11184 11.8341 2.05663 11.9161V11.9297C2.01522 11.998 1.98761 12.0663 1.94621 12.1346L1.9048 12.2165V12.2302L1.84959 12.3394C1.76677 12.517 1.68395 12.6945 1.61494 12.8584L1.58733 12.913C0.924793 14.4153 0.455495 16.0269 0.19324 17.6794V17.7204L0.179437 17.775C0.165634 17.898 0.151832 18.0072 0.138029 18.1301V18.1438C0.124226 18.2667 0.0966202 18.4033 0.0828173 18.5398V18.5672C0.0828173 18.6354 0.0690144 18.7037 0.0690144 18.772C0.0690144 18.8266 0.0690143 18.8949 0.0552114 18.9496V19.0178V19.1271C0.0552114 19.1817 0.0414085 19.25 0.0414085 19.3183V19.3729V19.4822C0.0276056 19.6734 0.0138029 19.8783 0.0138029 20.0695V20.1924H0V36.5674C0 40.1183 2.91241 43 6.50115 43C10.0899 43 13.0023 40.1183 13.0023 36.5674V20.4382C13.0023 20.3426 13.0023 20.2333 13.0161 20.1377V20.0558C13.0161 20.0285 13.0161 20.0012 13.0299 19.9602C13.0437 19.8509 13.0713 19.7007 13.0713 19.6324C13.0713 19.6188 13.0713 19.5915 13.0713 19.5778C13.0713 19.5641 13.0713 19.5368 13.0713 19.5232V19.5095C13.0851 19.5095 13.0851 19.4959 13.0851 19.4959V19.4822C13.0851 19.4549 13.0989 19.4276 13.0989 19.3866L13.1127 19.3729V19.3593C13.1127 19.3593 13.1127 19.3593 13.1127 19.3456V19.332C13.1127 19.3183 13.1127 19.3046 13.1265 19.291C13.1265 19.2773 13.1265 19.2637 13.1265 19.25V19.2364C13.1265 19.2227 13.1265 19.2227 13.1265 19.209L13.1403 19.0998C13.1541 19.0452 13.1679 19.0042 13.1679 18.9632L13.1817 18.9496V18.9222C13.1817 18.8949 13.1955 18.8813 13.1955 18.8403C13.1955 18.8266 13.1955 18.8266 13.1955 18.813C13.2094 18.7857 13.2232 18.731 13.237 18.6764C13.2508 18.6354 13.2646 18.6081 13.2646 18.5808C13.2784 18.5398 13.2922 18.4989 13.306 18.4579C13.3198 18.4169 13.3474 18.3623 13.3474 18.3213C13.3474 18.3213 13.3612 18.3077 13.3612 18.294C13.4302 18.1028 13.513 17.9116 13.6096 17.7341C13.6096 17.7204 13.6096 17.7068 13.6234 17.7068L13.6372 17.6794L13.6648 17.6385L13.6786 17.6112L13.6925 17.5975L13.7063 17.5702C13.7339 17.5292 13.7477 17.4882 13.7477 17.4882L13.7615 17.4609V17.4336C13.8029 17.3653 13.8443 17.297 13.8857 17.2287L13.8995 17.2151C14.2032 16.7371 14.5758 16.2864 15.0037 15.904L15.0175 15.8903L15.0865 15.822L15.1003 15.8084L15.1141 15.7947C15.2246 15.6855 15.3488 15.5899 15.473 15.5079C15.5144 15.467 15.542 15.4396 15.5696 15.4396C15.6249 15.3987 15.6801 15.3577 15.7353 15.3167L15.8319 15.2621C16.1356 15.0572 16.4668 14.8934 16.7981 14.7295C16.8533 14.7022 16.8809 14.7022 16.8947 14.6885V14.6748C17.0051 14.6339 17.1294 14.5929 17.2398 14.5383C17.3502 14.4973 17.4468 14.47 17.5296 14.4427H17.5435L17.6125 14.4153H17.6539L17.6953 14.4017C17.7367 14.4017 17.7781 14.388 17.8333 14.3744H17.8609L17.8885 14.3607L17.9437 14.3471H17.9575C18.0266 14.3334 18.068 14.3197 18.0818 14.3061H18.1232C18.2888 14.2788 18.4544 14.2515 18.6201 14.2241C18.7167 14.2105 18.8271 14.2105 18.9375 14.1968H19.0204C19.1446 14.1832 19.2826 14.1832 19.4068 14.1832C20.3316 14.1832 21.2426 14.388 22.0708 14.7568H22.0846C22.8576 15.1119 23.5615 15.6035 24.1826 16.2181C24.4587 16.4913 24.6795 16.8054 24.8866 17.1331L24.9556 17.2424C25.0108 17.338 25.0798 17.4336 25.135 17.5429C25.135 17.5429 25.135 17.5702 25.1488 17.5702C25.1902 17.6385 25.2317 17.7067 25.2593 17.7887C25.2593 17.7887 25.2731 17.8024 25.2731 17.816C25.3145 17.898 25.3697 17.9936 25.3973 18.0892C25.3973 18.1028 25.3973 18.1028 25.4111 18.1165C25.4387 18.1711 25.4525 18.2257 25.4801 18.2804C25.5215 18.4033 25.5767 18.5262 25.6181 18.6491L25.6319 18.7037C25.6595 18.7857 25.6733 18.8676 25.701 18.9359C25.7286 19.0178 25.7562 19.1134 25.77 19.1954C25.7838 19.3046 25.8114 19.4276 25.8252 19.5368C25.8942 19.9056 25.9218 20.288 25.9218 20.6567C25.9218 21.4625 25.77 22.2546 25.4801 22.9921C25.4663 23.0467 25.4387 23.1014 25.4249 23.1423L25.4111 23.1697C25.1074 23.8662 24.7347 24.4125 24.3483 24.8632C23.9066 25.3958 23.4097 25.7782 22.9266 26.0923C22.6919 26.2425 22.4573 26.4064 22.2364 26.584C22.195 26.6249 22.1398 26.6796 22.0846 26.7205L21.9604 26.8298C21.8776 26.8981 21.8085 26.98 21.7395 27.062L21.6843 27.1166C21.6153 27.1849 21.5601 27.2532 21.4911 27.3351L21.4221 27.4171C21.3807 27.4717 21.3392 27.5263 21.2978 27.581C21.2564 27.6356 21.215 27.6902 21.1736 27.7585L21.1184 27.8268C20.9942 28.0043 20.8837 28.1819 20.7733 28.3594C20.3178 29.1652 20.0418 30.0802 19.9866 31.0499C19.9728 31.1865 19.959 31.323 19.959 31.4596V31.7328C19.959 31.7328 19.959 31.7328 19.959 31.7464C19.959 32.6478 20.1522 33.5219 20.4973 34.2867C21.008 35.4475 21.8638 36.4035 22.8852 37.0591C23.9066 37.7283 25.1074 38.0834 26.3773 38.0834C27.2883 38.0834 28.2269 37.8785 29.1241 37.4552C29.1379 37.4415 29.1655 37.4278 29.1793 37.4142C30.0627 36.9089 30.9046 36.3353 31.6914 35.6797C31.8708 35.5295 32.0503 35.3792 32.2297 35.229C32.2849 35.188 32.3401 35.1471 32.3953 35.0924C32.4782 35.0105 32.5748 34.9286 32.6714 34.833C32.7818 34.7374 32.8784 34.6281 32.9889 34.5325C33.1545 34.3823 33.2925 34.232 33.4444 34.0818L33.5548 33.9725C33.61 33.9179 33.6652 33.8633 33.7204 33.8087C33.8446 33.6584 33.9689 33.5219 34.0931 33.3853C34.1207 33.3853 34.1483 33.3716 34.1759 33.358C35.8875 33.0029 38.8275 31.9786 40.5666 29.015C40.6633 28.8511 40.7599 28.6599 40.8565 28.4823C41.3258 27.6083 40.5666 26.6932 39.6971 26.9527ZM19.7243 11.2605C19.6415 11.2605 19.5449 11.2605 19.4482 11.2605C19.255 11.2605 19.0756 11.2605 18.8961 11.2742H18.7581C18.6201 11.2878 18.4682 11.3015 18.3302 11.3152H18.2474C18.0404 11.3288 17.8333 11.3698 17.6125 11.4108H17.5987H17.5849C17.502 11.4244 17.4192 11.4517 17.364 11.4517C17.3088 11.4654 17.2674 11.479 17.2122 11.4927C17.1294 11.5064 17.0189 11.5473 16.9085 11.5746C16.8257 11.602 16.7567 11.6156 16.7153 11.6293C16.5634 11.6702 16.4254 11.7249 16.3012 11.7658H16.2874C16.1218 11.8341 15.9699 11.8888 15.8043 11.957C15.7353 11.9844 15.6801 12.0117 15.6387 12.0253C15.1556 12.2438 14.6863 12.4897 14.2446 12.7765L14.2308 12.7901L14.1617 12.8311L14.1065 12.8721C14.0375 12.913 13.9547 12.9813 13.8857 13.0223L13.8719 13.036C13.8167 13.0769 13.7753 13.1043 13.7477 13.1179V13.1316C13.582 13.2545 13.4026 13.3911 13.2508 13.5276L13.237 13.5413L13.2232 13.5549C13.1679 13.5959 13.1127 13.6369 13.0713 13.6915L13.0575 13.7052H13.0437C12.4502 14.2515 11.9257 14.866 11.484 15.5626L11.4564 15.5762C11.4012 15.6855 11.3322 15.7947 11.2631 15.904L11.2493 15.945H11.2355C11.2355 15.9586 11.2355 15.9586 11.2355 15.9586C11.2355 15.9586 11.2355 15.9586 11.2355 15.9723C11.2217 15.9859 11.2079 16.0133 11.1941 16.0406C11.1803 16.0815 11.1665 16.1088 11.1527 16.1225L11.1389 16.1498C11.1251 16.1771 11.1113 16.2181 11.0837 16.2454C11.0837 16.2591 11.0837 16.2591 11.0837 16.2591L11.0423 16.3274C11.0423 16.3274 11.0285 16.341 11.0285 16.3547C10.9595 16.4913 10.9043 16.6415 10.8353 16.7644C10.7662 16.901 10.711 17.0375 10.6558 17.1741V17.2014C10.6282 17.2561 10.6144 17.3107 10.5868 17.3653C10.5454 17.4746 10.504 17.6112 10.4626 17.7477C10.4626 17.775 10.4488 17.8024 10.435 17.8433C10.4212 17.8843 10.4074 17.9253 10.3936 17.9799C10.3936 17.9936 10.3936 18.0072 10.3798 18.0209C10.366 18.0482 10.366 18.0755 10.3522 18.1165V18.1301C10.3245 18.1984 10.3107 18.2667 10.3107 18.3213H10.2969C10.2831 18.3896 10.2693 18.4579 10.2555 18.5398V18.5672C10.2555 18.5808 10.2555 18.5945 10.2417 18.6218C10.2417 18.6491 10.2279 18.6901 10.2279 18.731C10.2141 18.7857 10.2003 18.854 10.2003 18.9222V18.9359C10.1865 19.0042 10.1589 19.0725 10.1589 19.1134C10.1313 19.3047 10.1037 19.5368 10.0899 19.7417C10.0899 19.769 10.0899 19.81 10.0761 19.8646V19.8919C10.0761 19.9602 10.0623 20.0285 10.0623 20.0831C10.0623 20.1514 10.0485 20.206 10.0485 20.2607V27.6902C10.0485 27.6766 10.0485 27.6765 10.0347 27.6765C6.18369 24.2759 7.10848 21.1894 7.10848 21.1894C5.742 23.1423 4.20988 23.0058 3.03663 23.0194C2.95381 22.4595 2.91241 21.9132 2.91241 21.3669C2.91241 20.9299 2.94001 20.5065 2.98142 20.0831C3.17466 18.3486 3.78199 16.7098 4.69298 15.2758C4.87241 14.989 5.05185 14.7295 5.25889 14.47C5.36932 14.3334 5.46594 14.1968 5.59016 14.0603C5.68678 13.951 5.7834 13.8281 5.90763 13.7052C6.01805 13.5823 6.12848 13.4593 6.2389 13.3501C6.59777 12.995 6.97045 12.6536 7.35693 12.3531C7.48116 12.2575 7.61919 12.1482 7.75722 12.0526C8.03327 11.8478 8.32313 11.6702 8.61299 11.4927C9.77244 10.8235 11.0699 10.3318 12.4778 10.086C13.1541 9.96308 13.8305 9.90845 14.5068 9.90845C16.384 9.90845 18.1784 10.3591 19.7795 11.1786H19.7243V11.2605ZM36.0807 21.0528V21.1484C36.0807 21.2576 36.0807 21.3669 36.0669 21.4762C36.0531 21.5718 36.0531 21.6947 36.0393 21.7903C36.0393 21.9268 36.0255 22.0498 36.0117 22.1863V22.2C35.9841 22.5141 35.9289 22.8555 35.8875 23.1697C35.8737 23.2106 35.8737 23.2516 35.8737 23.2926C35.8599 23.3882 35.8323 23.4838 35.8185 23.5794L35.8047 23.634L35.7909 23.7159L35.7771 23.7706C35.7632 23.8525 35.7494 23.9345 35.7356 24.0164L35.6942 24.1257C35.6666 24.2076 35.6666 24.3032 35.639 24.3988L35.6114 24.5217C35.4734 25.0817 35.2939 25.6553 35.0869 26.2152C35.0455 26.2972 35.0179 26.3791 34.9903 26.4611L34.9627 26.543C34.9213 26.6249 34.8937 26.7069 34.8661 26.7888C34.8247 26.9117 34.7694 27.021 34.7142 27.1439V27.1712C34.6452 27.3078 34.5762 27.458 34.5072 27.6083V27.6356C34.4658 27.7312 34.4106 27.8404 34.3554 27.9497C34.2449 28.1546 34.1345 28.3594 34.0379 28.5643C33.3754 29.7388 32.5748 30.8314 31.6362 31.8284L31.6224 31.8557C31.4153 32.0878 31.1945 32.2927 30.9598 32.5112L30.8494 32.6205C30.7666 32.7024 30.67 32.7844 30.5734 32.8663C30.4629 32.9483 30.3663 33.0439 30.2559 33.1395C30.1869 33.1941 30.1179 33.2487 30.0627 33.3033C29.8142 33.4945 29.5796 33.6994 29.3311 33.877L29.3035 33.8906C29.0412 34.0681 28.7928 34.2457 28.5167 34.4232L28.4201 34.4779C27.8128 34.8466 27.1779 35.0105 26.5429 35.0105C25.7148 35.0105 24.9004 34.7237 24.2516 34.2047C23.9342 33.9452 23.6581 33.6311 23.4373 33.276C23.2716 33.0029 23.1336 32.7024 23.0508 32.3883C23.0232 32.2927 23.0094 32.1971 22.9818 32.1015V32.0878C22.968 32.0878 22.968 32.0742 22.968 32.0605C22.9404 31.842 22.9128 31.6235 22.9128 31.4323C22.9128 30.8314 23.0646 30.2441 23.3269 29.7388C23.3821 29.6295 23.4511 29.5203 23.5339 29.411L23.5615 29.3564C23.6029 29.3018 23.6443 29.2608 23.6857 29.2062C23.7409 29.1379 23.7962 29.0696 23.8514 29.0013L23.948 28.9194C24.017 28.8511 24.086 28.7828 24.1688 28.7145C24.2793 28.6189 24.3897 28.537 24.5139 28.4687C25.8528 27.6219 26.957 26.4611 27.7024 25.109C27.8404 24.8495 27.9784 24.59 28.0888 24.3169C28.1165 24.2759 28.1441 24.2213 28.1579 24.1666C28.1855 24.0984 28.2131 24.0437 28.2269 23.9754C28.2545 23.9208 28.2821 23.8662 28.2959 23.8115C28.4063 23.5111 28.4891 23.2243 28.5719 22.9511C28.779 22.1727 28.8756 21.3806 28.8756 20.6021C28.8756 19.9056 28.8066 19.2364 28.6548 18.5808V18.5535L28.641 18.5398L28.6272 18.4306C28.3097 17.0102 27.799 15.6991 27.1088 14.4973C26.6257 13.6232 26.046 12.8174 25.4111 12.0936C25.1626 11.8068 24.9004 11.5337 24.6243 11.2742C24.6243 11.2605 24.6105 11.2605 24.6105 11.2469C24.3345 10.9737 24.0446 10.7142 23.7409 10.4684C21.2012 8.37884 17.9437 7.14969 14.5068 7.14969C14.355 7.14969 14.2032 7.16334 14.0651 7.16334C13.9409 7.16334 13.8167 7.177 13.6925 7.19066C13.375 7.20431 13.0713 7.23163 12.7677 7.2726C12.6848 7.28626 12.5882 7.29991 12.4916 7.29991C12.326 7.32723 12.1603 7.34089 11.9809 7.3682C11.2769 7.49112 10.5868 7.66866 9.92427 7.88718C9.24793 8.10569 8.6268 8.36518 8.00567 8.66564C8.06088 8.61101 8.12989 8.54273 8.19891 8.4881C8.24032 8.44713 8.28172 8.41981 8.33694 8.37884C8.41975 8.2969 8.50257 8.22861 8.58539 8.14667C8.84764 7.92815 9.09609 7.73695 9.34455 7.53209C11.1389 6.16636 13.2094 5.18304 15.3902 4.63675C15.5834 4.58212 15.7767 4.54115 15.9837 4.50018L16.0803 4.48652C16.315 4.43189 16.5634 4.39092 16.8119 4.34995C17.0466 4.32263 17.2812 4.28166 17.502 4.25435C17.7919 4.22703 18.068 4.19972 18.344 4.18606C18.4268 4.18606 18.5235 4.1724 18.6201 4.1724C18.8685 4.15874 19.117 4.15874 19.3654 4.15874H19.4621C20.6767 4.15874 21.8914 4.29532 23.0508 4.55481C23.7547 4.70504 24.4449 4.90989 25.1212 5.15573C25.7838 5.40156 26.4325 5.6747 27.0536 5.98882C27.8956 6.42585 28.71 6.91751 29.4691 7.49112C29.6486 7.62769 29.8418 7.76426 30.0074 7.91449C30.1869 8.06472 30.3663 8.21495 30.5458 8.36518C30.7252 8.51541 30.9046 8.6793 31.0565 8.84319C32.0779 9.82651 32.9751 10.9327 33.7204 12.1482C33.8446 12.3394 33.9551 12.5443 34.0655 12.7355C34.0931 12.7901 34.1207 12.8311 34.1345 12.8721C34.2173 13.036 34.3139 13.1999 34.3968 13.3501C34.5072 13.5686 34.6176 13.7871 34.7142 14.0056V14.0193L34.7556 14.1012C34.8385 14.2924 34.9213 14.4973 35.0041 14.7022C35.2663 15.3714 35.4734 16.0542 35.6528 16.7507L35.6666 16.8054C35.7218 17.0375 35.7771 17.2834 35.8185 17.5155C36.0255 18.5672 36.1221 19.6051 36.1221 20.6294C36.0945 20.7523 36.0807 20.9025 36.0807 21.0528Z" fill="url(#paint1_linear_2855_2235)"/>
</g>
<defs>
<linearGradient id="paint0_linear_2855_2235" x1="27.2319" y1="-1.64247" x2="27.2319" y2="47.5292" gradientUnits="userSpaceOnUse">
<stop offset="0.0726259" stop-color="#FF7B04"/>
<stop offset="0.8771" stop-color="#FF2A48"/>
</linearGradient>
<linearGradient id="paint1_linear_2855_2235" x1="20.4668" y1="-1.49756" x2="20.4668" y2="43.2684" gradientUnits="userSpaceOnUse">
<stop offset="0.0726259" stop-color="#FF7B04"/>
<stop offset="0.8771" stop-color="#FF2A48"/>
</linearGradient>
<clipPath id="clip0_2855_2235">
<rect width="43" height="43" fill="white"/>
</clipPath>
</defs>
</svg>
