<svg width="910" height="210" viewBox="0 0 910 210" fill="none" xmlns="http://www.w3.org/2000/svg">
<g clip-path="url(#clip0_1539_4305)">
<g clip-path="url(#clip1_1539_4305)">
<path d="M209.881 104.935C209.881 106.446 209.849 107.951 209.779 109.434C207.429 165.302 161.399 209.876 104.941 209.876C48.4829 209.876 2.45798 165.302 0.10828 109.434C0.0397015 107.951 0.00360937 106.455 0 104.946C0 101.983 0.122719 99.052 0.368156 96.1537C0.368156 96.0887 0.368156 96.0291 0.368156 95.9696C4.92138 42.2134 49.9934 0.00537436 104.924 0.00537436C131.229 -0.00118698 156.576 9.87193 175.945 27.669C195.314 45.4661 207.293 69.8888 209.508 96.0995C209.762 99.0069 209.881 101.958 209.881 104.935Z" fill="black"/>
<path d="M69.3216 97.5613C70.8628 102.037 72.4022 106.514 73.9398 110.994H0.10828C0.0397015 109.478 0.00360937 107.951 0 106.413C0 103.389 0.126326 100.396 0.378983 97.4368H1.29396V97.3989C49.6903 93.9935 53.9295 51.688 53.9295 51.688H67.2481L67.3184 51.8829L72.0557 66.0623L80.1768 90.4256L82.559 97.5505L69.3216 97.5613C69.3004 97.512 69.2281 97.4722 69.2134 97.4205L66.8799 90.4256L64.763 84.0749L61.5795 74.5786C56.918 85.2118 48.5587 95.8775 33.6646 97.4205C45.5106 97.4205 57.3602 97.4205 69.2134 97.4205L69.3216 97.5613Z" fill="white"/>
<path d="M104.941 97.3286V111.032L87.2638 111.059V111.015C85.71 106.457 84.1616 101.882 82.6077 97.3286H104.941Z" fill="white"/>
<path d="M104.935 146.628V156.705H91.411L90.2036 153.548L73.929 111.015H87.2422L87.2638 111.053L100.864 146.602L104.935 146.628Z" fill="white"/>
<path d="M209.508 97.4477H208.593V97.4043C160.202 94.0043 155.957 51.6826 155.957 51.6826H142.639L142.568 51.8775L137.831 66.0624L129.71 90.4256L127.415 97.3069H104.935V111.01L122.612 111.037L109.012 146.629H104.935V156.726H118.47L119.672 153.564L135.952 111.032L140.679 97.4531L143.007 90.4635L145.129 84.1183L148.313 74.6057C152.974 85.2444 161.334 95.9155 176.222 97.4585H144.171L139.445 111.037H209.784C209.853 109.525 209.887 108 209.887 106.462C209.881 103.392 209.762 100.398 209.508 97.4477Z" fill="white"/>
</g>
<path d="M276.731 152.174L243.99 56.2316H256.202L285.051 141.842H291.224L320.207 56.2316H331.748L298.872 152.174H276.731ZM349.168 152.308V56.5H412.772V66.8322H360.708V98.7682H400.292V109.101H360.708V141.976H414.248V152.308H349.168ZM436.471 152.308L436.336 56.3658H477.934C492.291 56.3658 503.563 63.6118 503.563 83.8737C503.563 98.7682 497.122 107.624 485.716 110.577L503.563 152.04H490.949L473.639 111.784H448.01V152.308H436.471ZM448.01 101.452H475.652C485.045 101.452 491.754 95.6819 491.754 84.0079C491.754 71.3945 485.045 66.698 475.518 66.698H448.01V101.452ZM565.303 153.65C539.674 153.65 526.256 136.608 526.256 106.953V56.3658H537.795L537.661 107.892C537.661 133.523 547.591 143.318 565.303 143.318C581.942 143.318 591.872 133.253 591.872 107.624V56.3658H603.412V106.282C603.412 137.413 590.127 153.65 565.303 153.65ZM626.92 152.308V56.3658H638.46V141.976H691.329V152.308H626.92ZM711.467 152.308V56.3658H723.007V152.308H711.467ZM794.235 152.576L762.299 66.8322L758.676 66.698V152.308H747.137V56.3658L770.887 56.5L802.822 142.244H806.312V56.3658H817.851V152.442L794.235 152.576ZM842.035 152.308V56.3658H853.575V98.4998H860.017L894.904 56.3658H909.128L870.483 103.867L909.933 152.308H895.709L859.479 108.833H853.575V152.308H842.035Z" fill="#121212"/>
</g>
<defs>
<clipPath id="clip0_1539_4305">
<rect width="909.932" height="209.881" fill="white"/>
</clipPath>
<clipPath id="clip1_1539_4305">
<rect width="209.881" height="209.881" fill="white"/>
</clipPath>
</defs>
</svg>
