<svg width="210" height="210" viewBox="0 0 210 210" fill="none" xmlns="http://www.w3.org/2000/svg">
<g clip-path="url(#clip0_1539_4305)">
<g clip-path="url(#clip1_1539_4305)">
<path d="M209.881 104.935C209.881 106.446 209.849 107.951 209.779 109.434C207.429 165.302 161.399 209.876 104.941 209.876C48.4829 209.876 2.45798 165.302 0.10828 109.434C0.0397015 107.951 0.00360937 106.455 0 104.946C0 101.983 0.122719 99.052 0.368156 96.1537C0.368156 96.0887 0.368156 96.0291 0.368156 95.9696C4.92138 42.2134 49.9934 0.00537436 104.924 0.00537436C131.229 -0.00118698 156.576 9.87193 175.945 27.669C195.314 45.4661 207.293 69.8888 209.508 96.0995C209.762 99.0069 209.881 101.958 209.881 104.935Z" fill="black"/>
<path d="M69.3216 97.5613C70.8628 102.037 72.4022 106.514 73.9398 110.994H0.10828C0.0397015 109.478 0.00360937 107.951 0 106.413C0 103.389 0.126326 100.396 0.378983 97.4368H1.29396V97.3989C49.6903 93.9935 53.9295 51.688 53.9295 51.688H67.2481L67.3184 51.8829L72.0557 66.0623L80.1768 90.4256L82.559 97.5505L69.3216 97.5613C69.3004 97.512 69.2281 97.4722 69.2134 97.4205L66.8799 90.4256L64.763 84.0749L61.5795 74.5786C56.918 85.2118 48.5587 95.8775 33.6646 97.4205C45.5106 97.4205 57.3602 97.4205 69.2134 97.4205L69.3216 97.5613Z" fill="white"/>
<path d="M104.941 97.3286V111.032L87.2638 111.059V111.015C85.71 106.457 84.1616 101.882 82.6077 97.3286H104.941Z" fill="white"/>
<path d="M104.935 146.628V156.705H91.411L90.2036 153.548L73.929 111.015H87.2422L87.2638 111.053L100.864 146.602L104.935 146.628Z" fill="white"/>
<path d="M209.508 97.4477H208.593V97.4043C160.202 94.0043 155.957 51.6826 155.957 51.6826H142.639L142.568 51.8775L137.831 66.0624L129.71 90.4256L127.415 97.3069H104.935V111.01L122.612 111.037L109.012 146.629H104.935V156.726H118.47L119.672 153.564L135.952 111.032L140.679 97.4531L143.007 90.4635L145.129 84.1183L148.313 74.6057C152.974 85.2444 161.334 95.9155 176.222 97.4585H144.171L139.445 111.037H209.784C209.853 109.525 209.887 108 209.887 106.462C209.881 103.392 209.762 100.398 209.508 97.4477Z" fill="white"/>
</g>
</g>
<defs>
<clipPath id="clip0_1539_4305">
<rect width="909.932" height="209.881" fill="white"/>
</clipPath>
<clipPath id="clip1_1539_4305">
<rect width="209.881" height="209.881" fill="white"/>
</clipPath>
</defs>
</svg>
